<?xml version="1.0" encoding="utf-8"?>
<!-- Generator: Adobe Illustrator 17.0.0, SVG Export Plug-In . SVG Version: 6.00 Build 0)  -->
<!DOCTYPE svg PUBLIC "-//W3C//DTD SVG 1.1//EN" "http://www.w3.org/Graphics/SVG/1.1/DTD/svg11.dtd">
<svg version="1.1" id="Layer_1" xmlns="http://www.w3.org/2000/svg" xmlns:xlink="http://www.w3.org/1999/xlink" x="0px" y="0px"
	 width="2443px" height="2500px" viewBox="0 0 2443 2500" enable-background="new 0 0 2443 2500" xml:space="preserve">
<g>
	<g>
		
			<image overflow="visible" opacity="0.32" width="2366" height="2366" xlink:href="37AAF07B.png"  transform="matrix(1 0 0 1 38.6914 110.2143)">
		</image>
		<g>
			<circle fill="#FFFFFF" cx="1221.5" cy="1250" r="1147.78"/>
		</g>
	</g>
	<g>
		<path fill="#4285F4" d="M2080.719,1270.435c0-72.088-5.85-124.693-18.509-179.246h-823.175v325.37h483.185
			c-9.738,80.859-62.343,202.63-179.246,284.456l-1.639,10.893l260.273,201.63l18.032,1.8
			C1985.246,1762.391,2080.719,1537.357,2080.719,1270.435"/>
		<path fill="#34A853" d="M1239.035,2127.707c236.72,0,435.449-77.938,580.605-212.369l-276.666-214.323
			c-74.036,51.631-173.403,87.676-303.939,87.676c-231.851,0-428.632-152.94-498.779-364.335l-10.282,0.873l-270.635,209.447
			l-3.539,9.839C599.975,1930.919,896.124,2127.707,1239.035,2127.707"/>
		<path fill="#FBBC05" d="M740.256,1424.356c-18.509-54.553-29.221-113.008-29.221-173.403c0-60.402,10.712-118.85,28.247-173.403
			l-0.49-11.619L464.765,853.119l-8.966,4.265c-59.422,118.85-93.518,252.314-93.518,393.569s34.096,274.712,93.518,393.562
			L740.256,1424.356"/>
		<path fill="#EB4335" d="M1239.035,713.208c164.632,0,275.686,71.114,339.009,130.543l247.439-241.596
			c-151.966-141.254-349.728-227.956-586.448-227.956c-342.911,0-639.06,196.781-783.236,483.185l283.483,220.166
			C810.403,866.155,1007.184,713.208,1239.035,713.208"/>
	</g>
</g>
</svg>
